<svg width="23" height="23" fill="none" xmlns="http://www.w3.org/2000/svg"><path d="M16.53 23a6.409 6.409 0 01-2.198-.393 23.442 23.442 0 01-8.513-5.426A23.441 23.441 0 01.393 8.668 6.362 6.362 0 01.07 5.541 6.512 6.512 0 013.42.766 6.404 6.404 0 016.488 0a.72.72 0 01.703.568l1.128 5.265a.719.719 0 01-.195.659L6.197 8.419a18.918 18.918 0 008.384 8.385l1.928-1.928a.719.719 0 01.659-.194l5.264 1.128a.719.719 0 01.568.702c0 1.09-.257 2.122-.766 3.067a6.513 6.513 0 01-4.776 3.353 6.45 6.45 0 01-.928.068zM5.914 1.469a4.978 4.978 0 00-3.56 2.12 4.952 4.952 0 00-.61 4.589 21.8 21.8 0 0013.079 13.078 4.952 4.952 0 004.587-.61 4.978 4.978 0 002.122-3.56l-4.283-.917-2.013 2.013a.719.719 0 01-.814.143 20.351 20.351 0 01-9.746-9.746.719.719 0 01.142-.814l2.013-2.013-.917-4.283z" fill="#fff"/></svg>