<svg width="23" height="23" fill="none" xmlns="http://www.w3.org/2000/svg"><path d="M22.426 9.959l-.002-.002L13.042.575c-.4-.4-.932-.62-1.497-.62-.566 0-1.098.22-1.498.62L.67 9.953a2.12 2.12 0 00-.005 3 2.105 2.105 0 001.47.62h.374v6.904a2.481 2.481 0 002.478 2.478h3.67a.674.674 0 00.674-.674v-5.413c0-.623.508-1.13 1.131-1.13h2.165c.624 0 1.13.507 1.13 1.13v5.413c0 .372.303.674.675.674h3.67a2.48 2.48 0 002.479-2.478v-6.904h.346c.566 0 1.097-.22 1.498-.62a2.12 2.12 0 000-2.994zm-.954 2.04a.765.765 0 01-.545.226h-1.02a.674.674 0 00-.674.674v7.578c0 .623-.507 1.13-1.13 1.13h-2.998v-4.739a2.481 2.481 0 00-2.478-2.478h-2.165a2.481 2.481 0 00-2.478 2.478v4.74H4.987c-.623 0-1.13-.508-1.13-1.131v-7.578a.674.674 0 00-.674-.674H2.18A.764.764 0 011.618 12a.77.77 0 010-1.088v-.001l9.383-9.382a.764.764 0 01.544-.225c.205 0 .399.08.544.225l9.38 9.38.004.004A.77.77 0 0121.472 12z" fill="#fff"/></svg>