<svg width="22" height="16" viewBox="0 0 22 16" fill="none" xmlns="http://www.w3.org/2000/svg">
<path fill-rule="evenodd" clip-rule="evenodd" d="M21.0605 0.93918C21.3417 1.22047 21.4997 1.60193 21.4997 1.99968C21.4997 2.39743 21.3417 2.77889 21.0605 3.06018L9.0605 15.0602C8.77921 15.3414 8.39775 15.4994 8 15.4994C7.60225 15.4994 7.22079 15.3414 6.9395 15.0602L0.9395 9.06018C0.666263 8.77728 0.515072 8.39837 0.518489 8.00508C0.521907 7.61178 0.67966 7.23556 0.957773 6.95745C1.23588 6.67934 1.6121 6.52159 2.0054 6.51817C2.39869 6.51475 2.7776 6.66594 3.0605 6.93918L8 11.8787L18.9395 0.93918C19.2208 0.657973 19.6023 0.5 20 0.5C20.3977 0.5 20.7792 0.657973 21.0605 0.93918Z" fill="white"/>
</svg>
